<svg xmlns="http://www.w3.org/2000/svg" xmlns:xlink="http://www.w3.org/1999/xlink" width="120" height="120" viewBox="0 0 120 120" id="maps">
  <defs>
    <path id="path-3" d="M125 104c21.54 0 39-17.46 39-39s-17.46-39-39-39-39 17.46-39 39 17.46 39 39 39zm0 26c-35.899 0-65-29.101-65-65S89.101 0 125 0s65 29.101 65 65-29.101 65-65 65z"></path>
    <path id="path-4" d="M0 75l129 90.787v35L0 110z"></path>
    <path id="path-5" d="M22 65h27v120H22z"></path>
    <path id="path-9" d="M40.74 1.31A21.591 21.591 0 0 1 45 14.2c0 12.155-10.074 22.01-22.5 22.01S0 26.354 0 14.2C0 9.385 1.58 4.932 4.26 1.31 6.447 2.922 9.553 3.928 13 3.928c3.866 0 7.305-1.267 9.5-3.234 2.195 1.967 5.634 3.234 9.5 3.234 3.446 0 6.552-1.006 8.74-2.618z"></path>
    <filter id="filter-6" width="111.1%" height="102.5%" x="-5.6%" y="-1.2%" filterUnits="objectBoundingBox">
      <feMorphology in="SourceAlpha" operator="dilate" radius=".5" result="shadowSpreadOuter1"></feMorphology>
      <feOffset in="shadowSpreadOuter1" result="shadowOffsetOuter1"></feOffset>
      <feColorMatrix in="shadowOffsetOuter1" values="0 0 0 0 0 0 0 0 0 0 0 0 0 0 0 0 0 0 0.139945652 0"></feColorMatrix>
    </filter>
    <filter id="filter-8" width="133.3%" height="133.3%" x="-16.7%" y="-11.9%" filterUnits="objectBoundingBox">
      <feOffset dy="2" in="SourceAlpha" result="shadowOffsetOuter1"></feOffset>
      <feGaussianBlur in="shadowOffsetOuter1" result="shadowBlurOuter1" stdDeviation="2"></feGaussianBlur>
      <feColorMatrix in="shadowBlurOuter1" values="0 0 0 0 0 0 0 0 0 0 0 0 0 0 0 0 0 0 0.15197577 0"></feColorMatrix>
    </filter>
    <circle id="path-7" cx="21" cy="21" r="21"></circle>
    <rect id="path-1" width="120" height="120" x="0" y="0" rx="28"></rect>
  </defs>
  <g id="@2x" fill="none" fill-rule="evenodd" stroke="none" stroke-width="1">
    <g id="Maps">
      <mask id="mask-2" fill="#fff">
        <use xlink:href="#path-1"></use>
      </mask>
      <use xlink:href="#path-1" id="bg" fill="#E6E0DC"></use>
      <g id="icon" mask="url(#mask-2)">
        <g transform="translate(-6 -65)">
          <path id="green" fill="#9CE177" fill-rule="evenodd" d="M39 57v57l95 66V57z"></path>
          <path id="pink" fill="#FFCDD8" fill-rule="evenodd" d="M1 102l36 23v72H1z"></path>
          <g id="Oval" fill="none" fill-rule="nonzero">
            <use xlink:href="#path-3" fill="#F5EFEB" fill-rule="evenodd"></use>
            <path stroke="#9CBB80" d="M125 103.5c-21.263 0-38.5-17.237-38.5-38.5s17.237-38.5 38.5-38.5 38.5 17.237 38.5 38.5-17.237 38.5-38.5 38.5zm0 27c-36.175 0-65.5-29.325-65.5-65.5S88.825-.5 125-.5s65.5 29.325 65.5 65.5-29.325 65.5-65.5 65.5z"></path>
          </g>
          <g id="yellow" fill="none">
            <use xlink:href="#path-4" fill="#FFD731"></use>
            <path stroke="#F5AE27" d="M.5 75.963v33.777l128 90.084v-33.777L.5 75.963z"></path>
          </g>
          <g id="road" fill="none">
            <use xlink:href="#path-5" fill="#000" filter="url(#filter-6)"></use>
            <use xlink:href="#path-5" fill="#FFFEFF"></use>
          </g>
          <path id="Rectangle" fill="#2D91E7" fill-rule="evenodd" d="M28 65h14v60H28z"></path>
          <g id="nav" fill="none" fill-rule="evenodd" stroke-width="1" transform="translate(15 115)">
            <g id="Oval-2">
              <use xlink:href="#path-7" fill="#000" filter="url(#filter-8)"></use>
              <use xlink:href="#path-7" fill="#0078DB"></use>
            </g>
            <path id="Combined-Shape" fill="#FFF" stroke="#FFF" stroke-linecap="round" stroke-linejoin="round" d="M21 24l-9 9 9-27v18zm0 0V6l9 27-9-9z"></path>
          </g>
          <g id="sign" fill="none" fill-rule="evenodd" stroke-width="1" transform="translate(73 140)">
            <path id="Rectangle-5" fill="#0075DD" d="M1 12h43c-.379 5.302-1.212 9.302-2.5 12-1.288 2.698-3.955 6.198-8 10.5H13C7.834 29.64 4.667 26.14 3.5 24c-1.167-2.14-2-6.14-2.5-12z"></path>
            <path id="Path-3" fill="red" d="M1 11l3.5-8.5 8 1.5 10-2L33 4l8-2 3 9z"></path>
            <g id="Combined-Shape">
              <use xlink:href="#path-9" fill="#E81718" fill-opacity="0"></use>
              <path stroke="#0073E0" d="M41.143 1.013A22.087 22.087 0 0 1 45.5 14.199c0 12.435-10.3 22.51-23 22.51S-.5 26.634-.5 14.2c0-4.802 1.54-9.378 4.357-13.186l.297-.401.402.296C6.72 2.502 9.749 3.428 13 3.428c3.647 0 7.003-1.168 9.166-3.107L22.5.022l.334.3C24.997 2.26 28.354 3.427 32 3.427c3.25 0 6.28-.926 8.444-2.52l.402-.296.297.401z"></path>
              <path stroke="#FFF" stroke-width="2" d="M40.487 2.685C38.154 4.121 35.164 4.928 32 4.928c-3.653 0-7.068-1.077-9.5-2.937-2.432 1.86-5.847 2.937-9.5 2.937-3.164 0-6.154-.807-8.487-2.243A20.565 20.565 0 0 0 1 14.2c0 11.599 9.621 21.01 21.5 21.01S44 25.798 44 14.2c0-4.154-1.236-8.125-3.513-11.514z"></path>
            </g>
            <path id="Rectangle-2" fill="#FFF" d="M1 11h43v2H1z"></path>
          </g>
        </g>
      </g>
    </g>
  </g>
</svg>
